<svg xmlns="http://www.w3.org/2000/svg" viewBox="0 0 275.63 132.56">
    <g id="Laag_2" data-name="Laag 2">
        <g id="Laag_1-2" data-name="Laag 1">
            <path class="cls-1"
                d="M25.7,132.48q-9.7,0-16.3-4.86T0,113.6l13.9-5.16a17.52,17.52,0,0,0,4.63,7.87,10.6,10.6,0,0,0,7.26,2.53,10.47,10.47,0,0,0,8-3.23,11.85,11.85,0,0,0,3.06-8.48V70.41h15v37.15a25.35,25.35,0,0,1-3.28,13,23,23,0,0,1-9.14,8.74A28.53,28.53,0,0,1,25.7,132.48Z" />
            <path class="cls-1"
                d="M88,132.48a30.5,30.5,0,0,1-14.72-3.37,23.44,23.44,0,0,1-9.66-9.57,29.78,29.78,0,0,1-3.41-14.6V70.41h15v34.53a15.72,15.72,0,0,0,1.58,7.21,11,11,0,0,0,4.5,4.77,13.56,13.56,0,0,0,6.77,1.66,13.31,13.31,0,0,0,6.78-1.66,11.32,11.32,0,0,0,4.41-4.77,15.72,15.72,0,0,0,1.57-7.21V70.41h15v34.53a29.38,29.38,0,0,1-3.45,14.51,24.17,24.17,0,0,1-9.71,9.62A30.3,30.3,0,0,1,88,132.48Z" />
            <path class="cls-1" d="M125.17,131.6V70.41h14.17l27.79,35.49V70.41h14.16V131.6H168L139.34,94.71V131.6Z" />
            <path class="cls-1"
                d="M222,132.56a34,34,0,0,1-12.85-2.4,32.46,32.46,0,0,1-10.45-6.73,31,31,0,0,1-7-10.05,32,32,0,0,1,0-24.74A31.51,31.51,0,0,1,209,71.86a33.63,33.63,0,0,1,12.77-2.41,34.68,34.68,0,0,1,14.68,3.19,30.13,30.13,0,0,1,11.28,8.79L237.15,91a19.65,19.65,0,0,0-6.86-5.77,18.87,18.87,0,0,0-8.52-1.93A16.66,16.66,0,0,0,215,84.62a17.14,17.14,0,0,0-5.42,3.71,16.49,16.49,0,0,0-3.58,5.6,20.18,20.18,0,0,0,0,14.2,16.63,16.63,0,0,0,3.72,5.68,17.26,17.26,0,0,0,5.59,3.76,17.48,17.48,0,0,0,6.95,1.36,16.64,16.64,0,0,0,6.51-1.23,14.7,14.7,0,0,0,5-3.41,12.36,12.36,0,0,0,3-5H220.28v-13h32.78v4.37a34,34,0,0,1-2.32,12.72,31.12,31.12,0,0,1-6.47,10.14,28.63,28.63,0,0,1-9.83,6.68A31.94,31.94,0,0,1,222,132.56Z" />
            <path class="cls-1"
                d="M235.4,0a34,34,0,0,1,12.85,2.4A32.74,32.74,0,0,1,258.7,9.13a31,31,0,0,1,7,10.06,30.65,30.65,0,0,1,2.49,12.37,30.72,30.72,0,0,1-2.49,12.37,31.49,31.49,0,0,1-17.27,16.78,33.72,33.72,0,0,1-12.76,2.4A34.53,34.53,0,0,1,221,59.92a30,30,0,0,1-11.28-8.78l10.58-9.53a19.76,19.76,0,0,0,6.86,5.77,19,19,0,0,0,8.52,1.92A16.82,16.82,0,0,0,242.44,48a17.34,17.34,0,0,0,5.42-3.72,16.45,16.45,0,0,0,3.58-5.59,19.17,19.17,0,0,0,1.27-7.08,19.12,19.12,0,0,0-1.31-7.13,16.72,16.72,0,0,0-3.72-5.68A17.42,17.42,0,0,0,242.09,15a17.69,17.69,0,0,0-7-1.35,16.64,16.64,0,0,0-6.51,1.22,14.74,14.74,0,0,0-5,3.41,12.5,12.5,0,0,0-3,5h16.52v13H204.37V31.91a33.91,33.91,0,0,1,2.32-12.72,31.05,31.05,0,0,1,6.46-10.14A28.65,28.65,0,0,1,223,2.36,32.09,32.09,0,0,1,235.4,0Z" />
            <path class="cls-1" d="M196.42,1V62.15H148.16v-13h33.22v-11H159.44V25.52h21.94V14H147.81V1Z" />
            <path class="cls-1" d="M139,1V62.15H124.82L97,26.66V62.15H82.87V1H96.15l28.67,36.89V1Z" />
            <path class="cls-1" d="M56.2,1v47.9h20V62.15H21.15V48.86h20V1Z" />
            <path class="cls-1" d="M267.5,80.07a8.23,8.23,0,1,1,5.72-2.41A7.79,7.79,0,0,1,267.5,80.07Z" />
        </g>
    </g>
</svg>