<svg xmlns="http://www.w3.org/2000/svg" viewBox="0 0 314.5 39.25">
    <defs>
        <style>
            #graphic_header .cls-1 {
                fill: #356359;
            }

            #graphic_header .cls-2 {
                fill: #449e8a;
            }

            #graphic_header .cls-3 {
                fill: #1a2442;
            }

            #graphic_header .cls-4 {
                fill: #223361;
            }

            #graphic_header .cls-5 {
                fill: #ae1831;
            }
        </style>
    </defs>
    <g id="graphic_header" data-name="Laag 2">
        <g id="Laag_2-2" data-name="Laag 2">
            <g id="Rectangle_38" data-name="Rectangle 38">
                <path class="cls-1" d="M314.5,0V39.25H238.87v-.14h75.49V.14h-58a1.07,1.07,0,0,1,.16-.14Z" />
                <path class="cls-1" d="M314.36.14v39H238.87a52.38,52.38,0,0,1,17.46-39Z" />
                <path class="cls-2" d="M256.49,0a1.07,1.07,0,0,0-.16.14H205.46a1,1,0,0,0,.08-.14Z" />
                <path class="cls-2" d="M205.46.14h50.87a52.38,52.38,0,0,0-17.46,39h-95A75.67,75.67,0,0,0,205.46.14Z" />
                <path class="cls-2" d="M238.87,39.11v.14H139.19c1.58,0,3.15,0,4.71-.14Z" />
                <path class="cls-3" d="M205.54,0a1,1,0,0,1-.08.14H105.38L105.5,0Z" />
                <path class="cls-3"
                    d="M105.38.14H205.46a75.67,75.67,0,0,1-61.56,39H72.33l16.3-19.22L99.8,6.72ZM123.28,20h0Z" />
                <path class="cls-3" d="M72.33,39.11H143.9c-1.56.09-3.13.14-4.71.14h-67l0,0Z" />
                <path class="cls-4" d="M105.5,0l-.12.14h-66A1.07,1.07,0,0,1,39.49,0Z" />
                <path class="cls-4"
                    d="M105.38.14,99.8,6.72,88.63,19.89,72.33,39.11H65.48A82.1,82.1,0,0,1,23.83,24.94,52.56,52.56,0,0,1,39.33.14Z" />
                <path class="cls-4" d="M72.33,39.11l-.09.11q-1,0-1.95,0c-1.61,0-3.22,0-4.81-.14Z" />
                <path class="cls-5" d="M39.49,0a1.07,1.07,0,0,0-.16.14H.08A.64.64,0,0,1,0,0Z" />
                <path class="cls-5" d="M.08.14H39.33a52.56,52.56,0,0,0-15.5,24.8A83.11,83.11,0,0,1,.08.14Z" />
            </g>
        </g>
    </g>
</svg>