<svg xmlns="http://www.w3.org/2000/svg" viewBox="0 0 431.87 152.29"><defs><style>.cls-1{fill:none;}.cls-2{fill:#356359;}.cls-3{fill:#449e8a;}.cls-4{fill:#1a2442;}.cls-5{fill:#823312;}.cls-6{fill:#5d0f24;}.cls-7{fill:#223361;}.cls-8{fill:#ae1831;}</style></defs><g id="Laag_2" data-name="Laag 2"><g id="Laag_2-2" data-name="Laag 2"><path class="cls-1" d="M135.55,133h0a0,0,0,0,0,0,0Z"/><path class="cls-2" d="M326.8,99.76H303.66a52.54,52.54,0,0,0-52.54,52.53H379.33a52.53,52.53,0,0,0,52.54-52.53Z"/><path class="cls-3" d="M303.66,99.76h20.95l-76-89.67A28.44,28.44,0,0,0,227.13,0V76.61a75.61,75.61,0,0,1-75.69,75.68h99.68A52.54,52.54,0,0,1,303.66,99.76Z"/><path class="cls-4" d="M223.52,99.76H129l-9.66,11.41h0l-7.29,8.6h0l-11.16,13.17L84.5,152.27l0,0h67A75.72,75.72,0,0,0,223.52,99.76Zm-88,33.27v0a0,0,0,0,1,0,0Z"/><path class="cls-5" d="M164.29,58.15,154,70.32,129,99.76h94.5a75.42,75.42,0,0,0,3.61-23.15V0A28.39,28.39,0,0,0,205,10.09l-6.3,7.42-1.61,1.9h0Z"/><path class="cls-6" d="M164.29,58.15l32.84-38.74h0A65.78,65.78,0,0,0,89.66,70.32H154Z"/><path class="cls-7" d="M112.05,119.77h0l7.29-8.6h0L129,99.76H86.65A52.49,52.49,0,0,0,36.09,138a82.13,82.13,0,0,0,46.46,14.3c.65,0,1.3,0,2,0l16.39-19.33Z"/><path class="cls-8" d="M79.52,100.24a52.38,52.38,0,0,1,7.13-.48H129L154,70.32H0A82.38,82.38,0,0,0,36.09,138,52.57,52.57,0,0,1,79.52,100.24Z"/></g></g></svg>