<svg xmlns="http://www.w3.org/2000/svg" viewBox="0 0 87.11 29.72"><defs><style>.cls-1{fill:#ccc;}</style></defs><g id="Laag_2" data-name="Laag 2"><g id="Laag_2-2" data-name="Laag 2"><path class="cls-1" d="M87.11,20.43H61.57a10.23,10.23,0,0,0-2,.2h-.07c-.3.07-.59.14-.87.23l-.18.06c-.25.08-.49.17-.73.27l-.22.1-.64.31-.25.14c-.19.11-.38.22-.56.34l-.26.18-.5.38-.25.22a4.38,4.38,0,0,0-.45.41,3,3,0,0,0-.25.25c-.13.14-.27.28-.4.43s-.15.19-.22.28-.24.31-.35.47l-.21.31-.3.49-.18.33c-.09.17-.17.34-.25.52l-.15.35c-.07.18-.14.36-.2.55l-.12.36-.15.58c0,.12-.06.24-.08.36a6.17,6.17,0,0,0-.09.62c0,.12,0,.24-.05.35a1.09,1.09,0,0,1,0,.18H77.1A10,10,0,0,0,87.11,20.43Z"/><path class="cls-1" d="M61.57,18.94h2.68L49.69,1.76A5.12,5.12,0,0,0,46.61,0V14.93a16.1,16.1,0,0,1-.78,5h0a15.15,15.15,0,0,1-.56,1.46l-.19.42c-.16.34-.33.68-.51,1l-.23.41c-.23.39-.47.77-.73,1.14a.71.71,0,0,0-.1.14c-.3.41-.61.8-.94,1.18l-.3.31c-.25.27-.51.54-.77.79l-.35.32c-.31.27-.62.53-.95.78a1.84,1.84,0,0,1-.22.17,14.87,14.87,0,0,1-1.24.83l-.35.2c-.32.18-.65.35-1,.52a2.53,2.53,0,0,0-.23.12H50.06A11.55,11.55,0,0,1,61.57,18.94Z"/><path class="cls-1" d="M44.56,18.94a15,15,0,0,0,.55-4V0A5.09,5.09,0,0,0,41.9,1.76L27.33,18.94Z"/><path class="cls-1" d="M18.41,12.89H30.5l1.88-2.23L38.62,3.3A13,13,0,0,0,27.47,1.42,12.84,12.84,0,0,0,18.41,12.89Z"/><path class="cls-1" d="M30.32,29.72a14.75,14.75,0,0,0,13.73-9.28H17a10.19,10.19,0,0,0-1.37.08,11,11,0,0,0-1.41.3l-.46.17c-.3.1-.6.2-.88.32s-.34.18-.5.27-.5.25-.74.4-.33.24-.49.36a7.52,7.52,0,0,0-.64.47c-.16.14-.3.29-.45.44a7,7,0,0,0-.55.54c-.14.16-.27.33-.4.5s-.32.4-.46.61-.22.38-.33.57-.26.44-.37.67-.17.4-.26.61l-.17.47a16.11,16.11,0,0,0,8.64,2.5Z"/><path class="cls-1" d="M6.25,26.32A11.55,11.55,0,0,1,15.45,19,13.64,13.64,0,0,1,17,18.94h8.35l3.85-4.55H0a15.87,15.87,0,0,0,1.1,5.07A16.11,16.11,0,0,0,6.25,26.32Z"/></g></g></svg>